<svg xmlns="http://www.w3.org/2000/svg" xmlns:xlink="http://www.w3.org/1999/xlink" width="22" height="22" version="1.1" viewBox="0 0 22 22"><title>Combined Shape</title><defs><path id="path-1" d="M197.553005,27.1055728 C198.046984,26.8585836 198.647657,27.0588079 198.894646,27.5527864 C199.141635,28.0467649 198.941411,28.6474379 198.447433,28.8944272 L198.447433,28.8944272 L188.447433,33.8944272 C188.165905,34.0351909 187.834533,34.0351909 187.553005,33.8944272 L187.553005,33.8944272 L177.553005,28.8944272 C177.059027,28.6474379 176.858803,28.0467649 177.105792,27.5527864 C177.352781,27.0588079 177.953454,26.8585836 178.447433,27.1055728 L178.447433,27.1055728 L188.000219,31.881966 Z M197.553005,22.1055728 C198.046984,21.8585836 198.647657,22.0588079 198.894646,22.5527864 C199.141635,23.0467649 198.941411,23.6474379 198.447433,23.8944272 L198.447433,23.8944272 L188.447433,28.8944272 C188.165905,29.0351909 187.834533,29.0351909 187.553005,28.8944272 L187.553005,28.8944272 L177.553005,23.8944272 C177.059027,23.6474379 176.858803,23.0467649 177.105792,22.5527864 C177.352781,22.0588079 177.953454,21.8585836 178.447433,22.1055728 L178.447433,22.1055728 L188.000219,26.881966 Z M188.447433,12.1055728 L198.447433,17.1055728 C199.184481,17.4740971 199.184481,18.5259029 198.447433,18.8944272 L188.447433,23.8944272 C188.165905,24.0351909 187.834533,24.0351909 187.553005,23.8944272 L177.553005,18.8944272 C176.815957,18.5259029 176.815957,17.4740971 177.553005,17.1055728 L187.553005,12.1055728 C187.834533,11.9648091 188.165905,11.9648091 188.447433,12.1055728 Z M188.000219,14.118034 L180.236287,18 L188.000219,21.881966 L195.764151,18 L188.000219,14.118034 Z"/></defs><g id="Screens" fill="none" fill-rule="evenodd" stroke="none" stroke-width="1"><g id="寄件业务" transform="translate(-177.000000, -740.000000)"><g id="Bars-/-Tab-Bar-/-Compact-/-Light---3-Tabs" transform="translate(0.000000, 728.000000)"><mask id="mask-2" fill="#fff"><use xlink:href="#path-1"/></mask><use id="Combined-Shape" fill="#0459FD" fill-rule="nonzero" xlink:href="#path-1"/></g></g></g></svg>