<svg xmlns="http://www.w3.org/2000/svg" xmlns:xlink="http://www.w3.org/1999/xlink" width="26" height="26" version="1.1" viewBox="0 0 26 26"><title>package</title><defs><path id="path-1" d="M34.9788235,31.28 C34.9788235,31.64 34.9488235,31.98 34.8988235,32.3 L34.8988235,32.3 L38.3488235,32.3 C38.3288235,34.05 38.1788235,35.1 37.8988235,35.44 C37.6188235,35.78 37.1188235,35.96 36.4188235,35.96 C36.0788235,35.96 35.6588235,35.94 35.1788235,35.91 L35.1788235,35.91 L34.9388235,35.05 C35.4588235,35.07 35.8788235,35.09 36.1988235,35.11 C36.7088235,35.1 37.0288235,34.99 37.1588235,34.79 C37.2888235,34.58 37.3688235,34.03 37.3988235,33.15 L37.3988235,33.15 L34.6888235,33.15 C34.5988235,33.39 34.4988235,33.62 34.3788235,33.83 C33.8788235,34.73 32.7088235,35.47 30.8588235,36.06 L30.8588235,36.06 L30.2288235,35.29 C31.8588235,34.81 32.9288235,34.23 33.4288235,33.54 C33.5088235,33.41 33.5888235,33.28 33.6488235,33.15 L33.6488235,33.15 L30.8388235,33.15 L30.8388235,32.3 L33.9388235,32.3 C33.9988235,31.98 34.0388235,31.64 34.0388235,31.28 L34.0388235,31.28 Z M8.782353,26.79 L9.412353,27.51 C8.202353,28 6.702353,28.34 4.912353,28.52 L4.912353,28.52 L4.912353,31.39 C4.862353,33.2 4.432353,34.75 3.632353,36.03 L3.632353,36.03 L2.952353,35.32 C3.632353,34.22 3.982353,32.91 4.022353,31.39 L4.022353,31.39 L4.022353,27.74 C6.122353,27.56 7.702353,27.25 8.782353,26.79 L8.782353,26.79 Z M12.7511765,26.72 L13.6411765,27.13 C13.3911765,27.92 13.0611765,28.67 12.6611765,29.37 L12.6611765,29.37 L12.6611765,36.03 L11.7311765,36.03 L11.7311765,30.75 C11.4511765,31.11 11.1511765,31.45 10.8411765,31.78 L10.8411765,31.78 L10.5311765,30.77 C11.5311765,29.61 12.2711765,28.26 12.7511765,26.72 L12.7511765,26.72 Z M17.2311765,26.84 L17.2311765,28.84 L19.4411765,28.84 L19.4411765,29.77 L17.2311765,29.77 L17.2311765,31.92 L19.8111765,31.92 L19.8111765,32.84 L17.2311765,32.84 L17.2311765,35.99 L16.2811765,35.99 L16.2811765,32.84 L13.4411765,32.84 L13.4411765,31.92 L16.2811765,31.92 L16.2811765,29.77 L14.7711765,29.77 C14.5211765,30.4 14.2211765,30.97 13.8611765,31.49 L13.8611765,31.49 L13.2511765,30.7 C13.8311765,29.81 14.2311765,28.72 14.4311765,27.44 L14.4311765,27.44 L15.3611765,27.56 C15.2811765,28.01 15.1911765,28.44 15.0811765,28.84 L15.0811765,28.84 L16.2811765,28.84 L16.2811765,26.84 L17.2311765,26.84 Z M9.222353,28.67 L9.702353,29.45 C9.222353,29.63 8.712353,29.78 8.182353,29.91 C8.192353,30.55 8.262353,31.15 8.392353,31.71 C8.832353,31.42 9.212353,31.12 9.522353,30.82 L9.522353,30.82 L10.052353,31.49 C9.672353,31.83 9.202353,32.18 8.622353,32.52 C8.952353,33.54 9.472353,34.44 10.182353,35.23 L10.182353,35.23 L9.472353,35.94 C8.132353,34.3 7.422353,32.35 7.342353,30.09 L7.342353,30.09 L6.582353,30.21 L6.582353,34.7 C7.022353,34.56 7.452353,34.41 7.892353,34.23 L7.892353,34.23 L8.062353,35.04 C7.342353,35.3 6.502353,35.57 5.532353,35.83 L5.532353,35.83 L5.332353,35.02 C5.562353,34.97 5.682353,34.86 5.682353,34.7 L5.682353,34.7 L5.682353,29.51 C6.922353,29.37 8.102353,29.09 9.222353,28.67 L9.222353,28.67 Z M2.552353,32.07 L3.392353,32.4 C2.972353,33.65 2.512353,34.83 2.002353,35.93 L2.002353,35.93 L1.112353,35.54 C1.672353,34.41 2.152353,33.25 2.552353,32.07 L2.552353,32.07 Z M24.39,26.88 L24.39,34.74 L25.59,34.74 L25.59,26.88 L26.54,26.88 L26.54,34.74 L29.46,34.74 L29.46,35.67 L20.54,35.67 L20.54,34.74 L23.44,34.74 L23.44,26.88 L24.39,26.88 Z M21.55,28.72 C22.06,30.06 22.51,31.59 22.91,33.31 L22.91,33.31 L22.04,33.53 C21.7,31.96 21.26,30.44 20.74,28.98 L20.74,28.98 Z M28.41,28.74 L29.25,28.98 C28.87,30.7 28.38,32.2 27.78,33.49 L27.78,33.49 L26.93,33.19 C27.49,32.03 27.99,30.54 28.41,28.74 L28.41,28.74 Z M33.0688235,26.76 L34.0388235,26.9 C33.9388235,27.14 33.8288235,27.37 33.7088235,27.58 L33.7088235,27.58 L37.9888235,27.58 L37.9888235,28.35 C37.3888235,29.04 36.6588235,29.64 35.8088235,30.14 C36.8788235,30.54 38.0688235,30.81 39.3888235,30.93 L39.3888235,30.93 L38.9588235,31.82 C37.4088235,31.64 36.0088235,31.26 34.7688235,30.67 C33.5688235,31.21 32.1688235,31.6 30.5888235,31.84 L30.5888235,31.84 L30.1488235,30.95 C31.4888235,30.78 32.6888235,30.5 33.7288235,30.11 C33.2488235,29.83 32.8088235,29.51 32.3988235,29.17 C32.0588235,29.46 31.6888235,29.73 31.2788235,29.98 L31.2788235,29.98 L30.6988235,29.22 C31.8688235,28.55 32.6588235,27.73 33.0688235,26.76 L33.0688235,26.76 Z M1.622353,29.24 C2.222353,29.75 2.722353,30.26 3.142353,30.77 L3.142353,30.77 L2.482353,31.42 C2.122353,30.95 1.612353,30.44 0.952353,29.9 L0.952353,29.9 Z M36.5988235,28.47 L33.0888235,28.47 C33.0588235,28.5 33.0388235,28.52 33.0288235,28.54 C33.5488235,28.97 34.1288235,29.35 34.7588235,29.67 C35.4488235,29.33 36.0588235,28.93 36.5988235,28.47 L36.5988235,28.47 Z M1.852353,26.9 C2.472353,27.4 3.002353,27.91 3.442353,28.41 L3.442353,28.41 L2.792353,29.07 C2.402353,28.6 1.862353,28.09 1.172353,27.55 L1.172353,27.55 Z M21.3350726,0.313408293 L29.3350725,4.31340822 C30.354559,4.82000324 30.9994684,5.85999226 31.0000726,6.99893886 L31.0000726,16.5294695 C30.9994684,17.6678855 30.354559,18.7078745 29.3372862,19.2133661 L21.3375726,23.2132228 C20.4925207,23.6360871 19.4976245,23.6360871 18.652859,23.2133661 L10.6500968,19.2119796 C9.63158543,18.698783 8.99215981,17.6524502 9,16.5189389 L9,6.99840822 C9.00067683,5.85999226 9.64558623,4.82000324 10.662859,4.31451167 L14.472235,2.40942821 C14.5210631,2.3791535 14.572305,2.35320661 14.6253197,2.33180119 L18.6650726,0.313408293 C19.5060215,-0.104469431 20.4941237,-0.104469431 21.3350726,0.313408293 Z M11,7.377 L11.000024,16.5258981 C10.9974027,16.906055 11.2105446,17.2548326 11.5472862,17.4245117 L19,21.151 L19,11.377 L11,7.377 Z M29,7.377 L21,11.377 L21,21.145 L28.4450727,17.4234082 C28.7849016,17.2545432 28.9998714,16.9078802 29.0000727,16.5289389 L29,7.377 Z M15.005,4.379 L12.241,5.761 L20.0000726,9.64090487 L22.763,8.259 L15.005,4.379 Z M19.5572862,2.10336605 L17.241,3.261 L25,7.14 L27.758,5.761 L20.4441545,2.10401382 C20.1640373,1.96517702 19.8350854,1.96532769 19.5572862,2.10336605 Z"/><filter id="filter-2" width="101.3%" height="102.8%" x="-.7%" y="-.7%" filterUnits="objectBoundingBox"><feOffset dx="0" dy=".5" in="SourceAlpha" result="shadowOffsetOuter1"/><feColorMatrix in="shadowOffsetOuter1" type="matrix" values="0 0 0 0 0 0 0 0 0 0 0 0 0 0 0 0 0 0 0.25 0"/></filter></defs><g id="Screens" fill="none" fill-rule="evenodd" stroke="none" stroke-width="1"><g id="派件业务" transform="translate(-49.000000, -737.000000)"><g id="Bars-/-Tab-Bar-/-Compact-/-Light---3-Tabs" transform="translate(0.000000, 728.000000)"><g id="Tint-Color" transform="translate(42.000000, 10.000000)"><use fill="#000" fill-opacity="1" filter="url(#filter-2)" xlink:href="#path-1"/><use fill="#0459FD" fill-rule="evenodd" xlink:href="#path-1"/></g></g></g></g></svg>