<svg xmlns="http://www.w3.org/2000/svg" xmlns:xlink="http://www.w3.org/1999/xlink" width="23" height="25" version="1.1" viewBox="0 0 23 25"><title>User</title><defs><path id="path-1" d="M16.6111111,15 C20.139597,15 23,17.7982203 23,21.25 L23,21.25 L23,23.75 C23,24.4403559 22.4279194,25 21.7222222,25 C21.016525,25 20.4444444,24.4403559 20.4444444,23.75 L20.4444444,23.75 L20.4444444,21.25 C20.4444444,19.1789322 18.7282027,17.5 16.6111111,17.5 L16.6111111,17.5 L6.38888889,17.5 C4.27179735,17.5 2.55555556,19.1789322 2.55555556,21.25 L2.55555556,21.25 L2.55555556,23.75 C2.55555556,24.4403559 1.98347496,25 1.27777778,25 C0.572080597,25 -2.27373675e-13,24.4403559 -2.27373675e-13,23.75 L-2.27373675e-13,23.75 L-2.27373675e-13,21.25 C-2.27373675e-13,17.7982203 2.86040299,15 6.38888889,15 L6.38888889,15 Z M11.5,9.09494702e-13 C15.0284859,9.09494702e-13 17.8888889,2.79822031 17.8888889,6.25 C17.8888889,9.70177969 15.0284859,12.5 11.5,12.5 C7.9715141,12.5 5.11111111,9.70177969 5.11111111,6.25 C5.11111111,2.79822031 7.9715141,9.09494702e-13 11.5,9.09494702e-13 Z M11.5,2.5 C9.38290846,2.5 7.66666667,4.17893219 7.66666667,6.25 C7.66666667,8.32106781 9.38290846,10 11.5,10 C13.6170915,10 15.3333333,8.32106781 15.3333333,6.25 C15.3333333,4.17893219 13.6170915,2.5 11.5,2.5 Z"/></defs><g id="Screens" fill="none" fill-rule="evenodd" stroke="none" stroke-width="1"><g id="个人中心" transform="translate(-301.000000, -736.000000)"><g id="Bars-/-Tab-Bar-/-Compact-/-Light---3-Tabs" transform="translate(0.000000, 728.000000)"><g id="Tab-3" transform="translate(301.000000, 8.000000)"><mask id="mask-2" fill="#fff"><use xlink:href="#path-1"/></mask><use id="User" fill="#0459FD" fill-rule="nonzero" xlink:href="#path-1"/></g></g></g></g></svg>